<svg width="30" height="24" viewBox="0 0 30 24" fill="none" xmlns="http://www.w3.org/2000/svg">
<path d="M1.21212 5.00056e-05C0.890647 5.00056e-05 0.582339 0.124979 0.355022 0.347354C0.127705 0.56973 0 0.871335 0 1.18582C0 1.50031 0.127705 1.80191 0.355022 2.02429C0.582339 2.24666 0.890647 2.37159 1.21212 2.37159H3.90303L7.08364 14.8222C7.35394 15.8775 8.32 16.6008 9.43152 16.6008H24.5467C25.6412 16.6008 26.5709 15.8894 26.8582 14.8578L30 3.55736H27.4618L24.5455 14.2293H9.4303L6.25091 1.77871C6.11957 1.26791 5.81682 0.815004 5.39113 0.492517C4.96543 0.170029 4.44143 -0.00338293 3.90303 5.00056e-05H1.21212ZM23.0303 16.6008C21.0364 16.6008 19.3939 18.2076 19.3939 20.1582C19.3939 22.1087 21.0364 23.7155 23.0303 23.7155C25.0242 23.7155 26.6667 22.1087 26.6667 20.1582C26.6667 18.2076 25.0242 16.6008 23.0303 16.6008ZM12.1212 16.6008C10.1273 16.6008 8.48485 18.2076 8.48485 20.1582C8.48485 22.1087 10.1273 23.7155 12.1212 23.7155C14.1152 23.7155 15.7576 22.1087 15.7576 20.1582C15.7576 18.2076 14.1152 16.6008 12.1212 16.6008ZM15.7576 5.00056e-05V5.9289H12.1212L16.9697 10.672L21.8182 5.9289H18.1818V5.00056e-05H15.7576ZM12.1212 18.9724C12.8048 18.9724 13.3333 19.4894 13.3333 20.1582C13.3333 20.8269 12.8048 21.3439 12.1212 21.3439C11.4376 21.3439 10.9091 20.8269 10.9091 20.1582C10.9091 19.4894 11.4376 18.9724 12.1212 18.9724ZM23.0303 18.9724C23.7139 18.9724 24.2424 19.4894 24.2424 20.1582C24.2424 20.8269 23.7139 21.3439 23.0303 21.3439C22.3467 21.3439 21.8182 20.8269 21.8182 20.1582C21.8182 19.4894 22.3467 18.9724 23.0303 18.9724Z" fill="black"/>
</svg>
