<svg width="30" height="29" viewBox="0 0 30 29" fill="none" xmlns="http://www.w3.org/2000/svg">
<path fill-rule="evenodd" clip-rule="evenodd" d="M24.112 0.76862C23.8746 0.357752 23.4121 0 22.9935 0C22.2436 0 21.2797 0.749874 20.697 1.20449C19.8237 1.88406 18.8051 2.52926 17.7115 2.75422C16.9023 2.91826 15.9368 2.79484 15.0838 2.57144C14.9432 2.53551 13.7341 2.11214 13.7341 2.11214C12.0594 1.33884 11.3157 3.5369 10.6549 4.61954C10.2019 5.35847 9.63164 6.23957 8.98331 7.12849C8.72442 7.10457 8.46366 7.14565 8.22466 7.24799C7.98566 7.35033 7.77598 7.5107 7.61462 7.71456C7.45327 7.91842 7.34535 8.15933 7.30064 8.41545C7.25593 8.67157 7.27584 8.93479 7.35858 9.18127C6.87742 9.77023 6.42124 10.3342 5.9885 10.8779C5.68875 10.7933 5.37056 10.8002 5.07477 10.8977C4.77899 10.9953 4.51911 11.179 4.32852 11.4254C4.13793 11.6717 4.02533 11.9694 4.00516 12.2802C3.985 12.591 4.0582 12.9008 4.21536 13.1697C2.54065 15.4083 1.38771 17.2284 0.722201 18.8484C0.159796 20.2232 -0.0807882 21.5089 0.0238817 22.8196C0.128552 24.1116 0.558167 25.3161 1.15963 26.5315C1.97512 28.1796 3.97478 28.6311 5.4386 27.7859L28.4378 14.5069C29.1555 14.0926 29.6791 13.4102 29.8935 12.6098C30.108 11.8093 29.9957 10.9565 29.5814 10.2389L24.1136 0.76862H24.112ZM24.5307 7.74245L22.3139 3.90403C21.1203 4.75701 19.7877 5.51782 18.338 5.81465C16.8476 6.11928 15.3401 5.86776 14.2965 5.59593C13.6544 5.42877 13.6653 5.68498 13.3201 6.24895C12.9264 6.89415 12.439 7.6534 11.8828 8.44545L12.0562 8.53138C12.2415 8.62148 12.407 8.74731 12.5434 8.90164C12.6798 9.05598 12.7844 9.23576 12.851 9.43065C12.9177 9.62554 12.9452 9.83169 12.9318 10.0372C12.9185 10.2428 12.8647 10.4437 12.7735 10.6283C12.6822 10.813 12.5553 10.9778 12.4002 11.1132C12.245 11.2487 12.0645 11.3521 11.8692 11.4175C11.6739 11.483 11.4676 11.5091 11.2622 11.4945C11.0567 11.4799 10.8562 11.4249 10.6721 11.3325L9.93315 10.9669C9.56134 11.4231 9.20827 11.8574 8.87083 12.2792C9.21473 12.4859 9.46592 12.817 9.57233 13.2038C9.67875 13.5907 9.63223 14.0037 9.44242 14.3572C9.25261 14.7107 8.93407 14.9776 8.55281 15.1026C8.17154 15.2277 7.75679 15.2012 7.39452 15.0287L6.9071 14.7881C5.21051 17.0331 4.17006 18.6734 3.61078 20.0341C3.19678 21.0449 3.07962 21.837 3.13742 22.5696C3.19522 23.2976 3.43737 24.0756 3.91541 25.0567L26.8741 11.8011L26.0929 10.4482L19.3284 14.3538C18.9698 14.5577 18.5451 14.6115 18.147 14.5034C17.7489 14.3953 17.4096 14.1342 17.2034 13.7769C16.9971 13.4196 16.9405 12.9953 17.046 12.5964C17.1514 12.1976 17.4103 11.8567 17.7662 11.648L24.5307 7.74245Z" fill="black"/>
</svg>
