<svg width="244" height="539" viewBox="0 0 244 539" fill="none" xmlns="http://www.w3.org/2000/svg">
<path d="M71.4 379.02C31.66 360.9 4.17 322.26 0.470004 278.43C0.15667 274.716 2.49673e-06 268.053 2.49673e-06 258.44C0.00666916 213.36 0.00666916 168.276 2.49673e-06 123.19C-0.0099975 72.5798 30.02 27.2198 77.28 8.5498C152.74 -21.2702 236.22 30.2598 243.41 111.21C243.757 115.15 243.93 121.81 243.93 131.19C243.917 173.356 243.923 215.526 243.95 257.7C243.95 267.166 243.793 273.823 243.48 277.67C236.53 361.52 148.79 414.3 71.4 379.02ZM17.68 279.67C24.44 338.61 78.57 380.63 137.42 371.86C189.77 364.05 226.88 319.25 226.92 266.69C226.947 220.77 226.947 174.85 226.92 128.93C226.913 119.976 226.637 113.326 226.09 108.98C215.58 25.4498 115.03 -12.4502 52.37 43.6398C32.1567 61.7265 20.57 84.4165 17.61 111.71C17.15 115.983 16.9267 122.643 16.94 131.69C17 174.356 17.0167 217.02 16.99 259.68C16.9833 268.893 17.2133 275.556 17.68 279.67Z" fill="#181818"/>
<path d="M122.38 519.02C146.273 499.787 170.113 480.483 193.9 461.11C196.26 459.19 198.157 458.02 199.59 457.6C208.32 455.03 214.07 466.72 207.12 472.35C181.32 493.236 155.523 514.127 129.73 535.02C125.17 538.72 121.29 540.76 116.38 536.78C90.3466 515.713 64.3199 494.636 38.2999 473.55C36.1466 471.803 34.7599 470.127 34.1399 468.52C31.8299 462.59 38.0499 455.45 44.3199 457.44C45.5999 457.84 47.5233 459.086 50.0899 461.18C73.8566 480.526 97.6732 499.807 121.54 519.02C121.82 519.247 122.1 519.247 122.38 519.02Z" fill="#181818"/>
</svg>
