<svg width="250" height="545" viewBox="0 0 250 545" fill="none" xmlns="http://www.w3.org/2000/svg">
<path d="M228.42 131.931C228.447 177.85 228.447 223.77 228.42 269.689C228.381 321.534 191.787 365.68 140.199 373.376C82.1965 382.02 28.8346 340.605 22.1702 282.499C21.714 278.477 21.4833 271.888 21.49 262.681C21.5167 220.02 21.5 177.355 21.44 134.688C21.4267 125.65 21.6506 119.059 22.1012 114.872C25.0218 87.9417 36.4367 65.5939 56.3702 47.7576L56.3704 47.7574C118.122 -7.51932 217.242 29.8275 227.602 112.167C228.136 116.417 228.413 122.989 228.42 131.931ZM228.42 131.931L229.92 131.93L228.42 131.931ZM73.7777 383.385L74.4 382.02L73.7778 383.385C152.129 419.103 240.941 365.661 247.975 280.794L247.975 280.792C248.294 276.877 248.45 270.166 248.45 260.7V260.699C248.423 218.526 248.417 176.356 248.43 134.19V134.19C248.43 124.809 248.257 118.09 247.904 114.078L247.904 114.077C240.626 32.13 156.122 -20.0341 79.7289 10.1547C31.8818 29.0566 1.48988 74.9799 1.5 126.19C1.50667 171.277 1.50667 216.36 1.5 261.44C1.5 271.05 1.65601 277.772 1.97532 281.556L3.47 281.43L1.97532 281.556C5.72126 325.93 33.5481 365.041 73.7777 383.385Z" fill="#181818" stroke="#181818" stroke-width="3"/>
<path d="M125.7 75.6798H124.22C114.566 75.6798 106.74 83.5059 106.74 93.1598V134.78C106.74 144.434 114.566 152.26 124.22 152.26H125.7C135.354 152.26 143.18 144.434 143.18 134.78V93.1598C143.18 83.5059 135.354 75.6798 125.7 75.6798Z" fill="#181818" stroke="#181818" stroke-width="3"/>
<path d="M195.953 462.946L195.953 462.947C172.341 482.178 148.677 501.339 124.96 520.432C101.27 501.36 77.6294 482.221 54.038 463.017C51.4807 460.932 49.3576 459.506 47.7706 459.009C43.9454 457.797 40.2406 459.403 37.8975 462.006C35.5621 464.601 34.3359 468.451 35.7413 472.062C36.4969 474.018 38.1106 475.894 40.355 477.715L40.3555 477.715C66.3755 498.802 92.4021 519.878 118.435 540.945C121.179 543.169 123.832 543.835 126.509 543.245C129.038 542.687 131.387 541.041 133.674 539.185C159.467 518.292 185.264 497.402 211.064 476.516L211.064 476.515C215.184 473.178 215.492 468.043 213.575 464.227C211.651 460.396 207.352 457.635 202.168 459.16C200.432 459.669 198.341 461.004 195.953 462.946Z" fill="#181818" stroke="#181818" stroke-width="3"/>
</svg>
