<svg width="596" height="69" fill="none" xmlns="http://www.w3.org/2000/svg"><path d="M24.6 68.2c-4.267 0-8.533-.8-12.8-2.4A35.162 35.162 0 0 1 .6 58.7l7.9-9.4a28.65 28.65 0 0 0 7.8 5.1c2.933 1.267 5.8 1.9 8.6 1.9 3.267 0 5.7-.6 7.3-1.8 1.667-1.267 2.5-3 2.5-5.2 0-1.467-.4-2.667-1.2-3.6-.8-.933-1.933-1.733-3.4-2.4-1.4-.733-3.067-1.5-5-2.3l-8.6-3.7a28.021 28.021 0 0 1-6.4-3.7c-2-1.533-3.633-3.433-4.9-5.7-1.267-2.333-1.9-5.067-1.9-8.2 0-3.6.967-6.833 2.9-9.7 2-2.867 4.7-5.133 8.1-6.8C17.767 1.467 21.7.6 26.1.6c3.8 0 7.5.733 11.1 2.2 3.667 1.467 6.867 3.533 9.6 6.2l-7 8.7c-2.067-1.667-4.2-2.967-6.4-3.9-2.2-.933-4.633-1.4-7.3-1.4s-4.833.567-6.5 1.7c-1.6 1.133-2.4 2.733-2.4 4.8 0 1.4.433 2.567 1.3 3.5.867.933 2.067 1.767 3.6 2.5 1.6.667 3.333 1.4 5.2 2.2l8.4 3.4c2.667 1.067 4.967 2.4 6.9 4a16.634 16.634 0 0 1 4.5 5.8c1.133 2.2 1.7 4.833 1.7 7.9 0 3.6-.967 6.933-2.9 10-1.867 3-4.633 5.433-8.3 7.3-3.6 1.8-7.933 2.7-13 2.7ZM60.076 67V1.8h14.1l18 33.8 6.6 14.2h.4a695.165 695.165 0 0 0-1.2-11.4c-.4-4.133-.6-8.1-.6-11.9V1.8h13.1V67h-14.1l-18-33.9-6.6-14.1h-.4c.333 3.467.7 7.233 1.1 11.3.466 4.067.7 8 .7 11.8V67h-13.1Zm66.211 0V1.8h40.4v11.5h-26.7v14.2h22.7v11.6h-22.7v16.4h27.7V67h-41.4Zm46.092 0 20.7-65.2h16.4l20.7 65.2h-14.5l-9-33.6a458.01 458.01 0 0 1-2.8-10.5 359.432 359.432 0 0 0-2.7-10.7h-.4c-.8 3.467-1.667 7.033-2.6 10.7a266.528 266.528 0 0 1-2.7 10.5l-9.1 33.6h-14Zm13.2-16.2V40.1h31.2v10.7h-31.2ZM237.615 67V1.8h13.7v27.6h.4l20.6-27.6h15.2l-19.9 25.8 23.4 39.4h-15.1l-16.4-28.6-8.2 10.6v18h-13.7Zm60.937 0V1.8h40.4v11.5h-26.7v14.2h22.7v11.6h-22.7v16.4h27.7V67h-41.4Zm54.493 0V1.8h23c4.6 0 8.766.6 12.5 1.8 3.733 1.2 6.7 3.267 8.9 6.2 2.266 2.933 3.4 6.933 3.4 12 0 4.867-1.134 8.867-3.4 12-2.2 3.067-5.167 5.367-8.9 6.9-3.734 1.467-7.9 2.2-12.5 2.2h-9.3V67h-13.7Zm35.4 0-14.9-27.8 9.6-8.6 20.7 36.4h-15.4Zm-21.7-35.1h8.1c4.066 0 7.166-.833 9.3-2.5 2.133-1.733 3.2-4.267 3.2-7.6 0-3.4-1.067-5.767-3.2-7.1-2.134-1.333-5.234-2-9.3-2h-8.1v19.2ZM413.689 67V1.8h13.7v25.4h23.8V1.8h13.7V67h-13.7V39.2h-23.8V67h-13.7Zm92.292 1.2c-4.066 0-7.7-.6-10.9-1.8-3.2-1.2-5.9-3.033-8.1-5.5-2.2-2.467-3.866-5.667-5-9.6-1.133-3.933-1.7-8.6-1.7-14V1.8h13.8v36.8c0 4.4.467 7.9 1.4 10.5.934 2.6 2.3 4.467 4.1 5.6 1.8 1.067 3.934 1.6 6.4 1.6 2.534 0 4.7-.533 6.5-1.6 1.8-1.133 3.2-3 4.2-5.6 1-2.6 1.5-6.1 1.5-10.5V1.8h13.2v35.5c0 5.4-.566 10.067-1.7 14-1.066 3.933-2.7 7.133-4.9 9.6-2.133 2.467-4.8 4.3-8 5.5-3.133 1.2-6.733 1.8-10.8 1.8Zm40.911-1.2V1.8h21.9c4.467 0 8.5.5 12.1 1.5 3.6.933 6.434 2.6 8.5 5 2.134 2.333 3.2 5.533 3.2 9.6 0 3-.8 5.867-2.4 8.6-1.533 2.667-3.666 4.5-6.4 5.5v.4c3.467.8 6.334 2.467 8.6 5 2.334 2.533 3.5 6 3.5 10.4s-1.133 8.033-3.4 10.9c-2.266 2.8-5.3 4.9-9.1 6.3-3.8 1.333-8.066 2-12.8 2h-23.7Zm13.7-10.6h8.8c4.267 0 7.5-.767 9.7-2.3 2.2-1.6 3.3-4 3.3-7.2 0-3-1.1-5.167-3.3-6.5-2.2-1.4-5.433-2.1-9.7-2.1h-8.8v18.1Zm0-28.3h7.4c3.867 0 6.667-.733 8.4-2.2 1.8-1.467 2.7-3.467 2.7-6 0-2.733-.933-4.667-2.8-5.8-1.8-1.133-4.533-1.7-8.2-1.7h-7.5v15.7Z" fill="#000"/></svg>